<svg width="32" height="32" viewBox="0 0 32 32" fill="none" xmlns="http://www.w3.org/2000/svg">
<path d="M31.6507 6.4L25.5998 0.349091C25.3671 0.116364 25.0762 0 24.7853 0C24.4943 0 24.2034 0.116364 23.9707 0.349091L20.5962 3.72364C20.1307 4.18909 20.1307 4.88727 20.5962 5.35273L26.6471 11.4036C26.8798 11.6364 27.1707 11.7527 27.4616 11.7527C27.7525 11.7527 28.0434 11.6364 28.2762 11.4036L31.6507 8.02909C32.1162 7.56364 32.1162 6.80727 31.6507 6.4Z" fill="#F2B705"/>
<path d="M18.9091 7.04001C18.4436 6.57455 17.6873 6.57455 17.28 7.04001L0.872727 23.4473C0.698182 23.6218 0.581818 23.9127 0.523636 24.2036L0 30.72C0 31.0691 0.116364 31.4182 0.349091 31.6509C0.581818 31.8836 0.872727 32 1.16364 32H1.22182L7.73818 31.5346C8.02909 31.5346 8.26182 31.4182 8.49454 31.1855L24.96 14.72C25.1927 14.4873 25.3091 14.1964 25.3091 13.9055C25.3091 13.6146 25.1927 13.3236 24.96 13.0909L18.9091 7.04001Z" fill="#F2B705"/>
</svg>
