<svg xmlns="http://www.w3.org/2000/svg" width="32" height="32" viewBox="0 0 32 32" fill="none">
    <path d="M21.6387 16L30.7826 6.85609C31.1635 6.48823 31.4673 6.04821 31.6762 5.56168C31.8852 5.07516 31.9952 4.55189 31.9998 4.0224C32.0044 3.49291 31.9036 2.9678 31.703 2.47772C31.5025 1.98764 31.2064 1.5424 30.832 1.16798C30.4576 0.793563 30.0124 0.497461 29.5223 0.296953C29.0322 0.0964454 28.5071 -0.00445056 27.9776 0.000150566C27.4481 0.0047517 26.9248 0.114759 26.4383 0.323753C25.9518 0.532747 25.5118 0.836543 25.1439 1.21741L16 10.3613L6.85609 1.21741C6.10399 0.491013 5.09668 0.0890685 4.0511 0.0981542C3.00553 0.10724 2.00535 0.526628 1.26599 1.26599C0.526628 2.00535 0.10724 3.00553 0.0981542 4.0511C0.0890685 5.09668 0.491013 6.10399 1.21741 6.85609L10.3613 16L1.21741 25.1439C0.836543 25.5118 0.532747 25.9518 0.323753 26.4383C0.114759 26.9248 0.0047517 27.4481 0.000150566 27.9776C-0.00445056 28.5071 0.0964454 29.0322 0.296953 29.5223C0.497461 30.0124 0.793563 30.4576 1.16798 30.832C1.5424 31.2064 1.98764 31.5025 2.47772 31.703C2.9678 31.9036 3.49291 32.0044 4.0224 31.9998C4.55189 31.9952 5.07516 31.8852 5.56168 31.6762C6.04821 31.4673 6.48823 31.1635 6.85609 30.7826L16 21.6387L25.1439 30.7826C25.896 31.509 26.9033 31.9109 27.9489 31.9018C28.9945 31.8928 29.9946 31.4734 30.734 30.734C31.4734 29.9946 31.8928 28.9945 31.9018 27.9489C31.9109 26.9033 31.509 25.896 30.7826 25.1439L21.6387 16Z" fill="#E23232"/>
</svg>