<svg xmlns="http://www.w3.org/2000/svg" width="80" height="80" viewBox="0 0 80 80" fill="none">
    <path fill-rule="evenodd" clip-rule="evenodd" d="M40 0C43.7061 0 46.7732 3.06709 46.7732 6.77316V33.2268H73.2268C76.9329 33.2268 80 36.2939 80 40C80 43.7061 76.9329 46.7732 73.2268 46.7732H46.7732V73.2268C46.7732 76.9329 43.7061 80 40 80C36.2939 80 33.2268 76.9329 33.2268 73.2268V46.7732H6.77316C3.06709 46.7732 0 43.7061 0 40C0 36.2939 3.06709 33.2268 6.77316 33.2268H33.2268V6.77316C33.2268 3.06709 36.2939 0 40 0Z" fill="#281E01"/>
</svg>