<svg width="26" height="32" viewBox="0 0 26 32" fill="none" xmlns="http://www.w3.org/2000/svg">
<path d="M21.1174 8.53333H4.0508C3.75213 8.53333 3.4748 8.65066 3.27213 8.86399C3.06946 9.07733 2.9628 9.36532 2.98413 9.66399L4.15746 30.9973C4.18946 31.552 4.6588 32 5.22413 32H20.1574C20.7334 32 21.1921 31.552 21.2241 30.976L22.1841 9.64266C22.1947 9.35466 22.0881 9.07733 21.8855 8.86399C21.6828 8.65066 21.4054 8.53333 21.1174 8.53333Z" fill="#E23232"/>
<path d="M24.4603 6.41879L18.1192 5.54594L18.5551 2.3756C18.6354 1.79224 18.2281 1.25368 17.6447 1.17346L9.19163 0.00994583C8.59473 -0.0697341 8.06875 0.338052 7.9895 0.920878L7.5527 4.09154L1.21244 3.2188C0.611374 3.13752 0.0895609 3.54744 0.0103077 4.13026C-0.0709723 4.71352 0.337347 5.25207 0.920707 5.33229L24.1686 8.53228C24.2186 8.53901 24.2676 8.5422 24.3155 8.5422C24.8405 8.5422 25.2978 8.15522 25.3707 7.62082C25.452 7.03757 25.0437 6.49901 24.4603 6.41879ZM9.66555 4.38232L9.95718 2.26882L16.2968 3.14178L16.0061 5.25517L9.81126 4.40248L9.66555 4.38232Z" fill="#E23232"/>
</svg>
